<svg xmlns="http://www.w3.org/2000/svg" viewBox="0 0 140.41 17.72"><defs><style>.cls-1{fill:#fff;}</style></defs><title>copyright</title><g id="Layer_2" data-name="Layer 2"><g id="Layer_1-2" data-name="Layer 1"><g id="Layer_2-2" data-name="Layer 2"><g id="Layer_1-2-2" data-name="Layer 1-2"><path class="cls-1" d="M1.61,8.08v5H0V.62c1.87.1,5.91-.45,7.18,1C10.49,5.93,6,8.89,1.61,8.08Zm4.33-2C8.24,2.68,4.6,1.52,1.61,2V6.73c1.15,0,3.61.27,4.33-.62Z"/><path class="cls-1" d="M16.86,3.86c5.45,3.21.67,12-5,8.77C6.36,9.44,11.18.6,16.86,3.86ZM12.75,5.07c-3.59,2.06-.84,8.58,3.2,6.36C19.55,9.36,16.79,2.84,12.75,5.07Z"/><path class="cls-1" d="M34.51,3.38l-2.79,9.73H30L27.3,5.19l-2.69,7.92H22.86L20.09,3.38h1.63l2.08,8.19,2.69-8.19h1.68l2.71,8.17L33,3.38Z"/><path class="cls-1" d="M44.72,8.59H36.94c-.32,3.7,5.32,4.63,6.06,1.15h1.72C42.83,16.89,32.29,11.84,36,5.6,38.27,1.18,45.9,3.52,44.72,8.59ZM42.81,6a3.2,3.2,0,0,0-5.87,1.8h6.22A3.21,3.21,0,0,0,42.81,6Z"/><path class="cls-1" d="M49.73,3.78a4.24,4.24,0,0,1,2.2-.56V5c-4.73-.77-3.45,5.32-3.6,8.13H46.72V3.38h1.61v2A3.62,3.62,0,0,1,49.73,3.78Z"/><path class="cls-1" d="M62.23,8.59H54.45c-.33,3.7,5.32,4.63,6.06,1.15h1.72c-1.9,7.15-12.43,2.1-8.75-4.14C55.77,1.18,63.4,3.52,62.23,8.59ZM60.31,6a3.2,3.2,0,0,0-5.86,1.8h6.22A3.3,3.3,0,0,0,60.31,6Z"/><path class="cls-1" d="M70.62,4A3.71,3.71,0,0,1,72,5.86V0h1.6V13.11H72V10.63c-1,3.42-6.26,3.41-7.67.28C62,6.86,66.24,1.09,70.62,4ZM66.29,5.64c-3.29,3.6,2.47,9.06,5.27,4.49C73.53,6.76,69.2,2.75,66.29,5.64Z"/><path class="cls-1" d="M87.86,3.86c6.31,4.21-2.14,14.34-6.06,6.77v2.48H80.19V0H81.8V5.86C82.49,3.36,85.78,2.58,87.86,3.86ZM83.4,5.13c-4.15,2.57.37,9.32,4.1,5.74C90,8.12,87.07,3,83.4,5.13Z"/><path class="cls-1" d="M92.63,3.38,95.78,11l2.93-7.66h1.79L94.72,17.72H92.89l2-4.77L90.82,3.38Z"/><path class="cls-1" d="M119.31.74V13.11h-2.48V4.48l-3.17,8.63H111.5l-3.17-8.59v8.59h-2.5V.74h3l3.76,9.31L116.3.74Z"/><path class="cls-1" d="M123.16.6l3.35,9.91L129.87.6h2.68l-4.43,12.51h-3.21L120.48.6Z"/><path class="cls-1" d="M136.22,11.2h4.19v1.91h-6.69V.6h2.5Z"/></g></g></g></g></svg>