<svg id="Layer_1" data-name="Layer 1" xmlns="http://www.w3.org/2000/svg" xmlns:xlink="http://www.w3.org/1999/xlink" viewBox="0 0 102.86 33.07"><defs><style>.cls-1{fill:none;}.cls-2{opacity:0.3;}.cls-3{clip-path:url(#clip-path);}.cls-4{opacity:0.05;}.cls-5{fill:#616160;}.cls-10,.cls-6{fill:#fff;}.cls-6,.cls-7{fill-rule:evenodd;}.cls-7,.cls-8,.cls-9{fill:#1e2f3e;}.cls-8{font-size:8.86px;font-family:SVN-PoppinsLight, SVN-Poppins;font-weight:300;letter-spacing:0.54em;}</style><clipPath id="clip-path"><rect class="cls-1" x="-173.09" y="-348.76" width="665.99" height="1068.4"/></clipPath></defs><g class="cls-2"><g class="cls-3"><g class="cls-4"><rect class="cls-5" x="65.98" y="-1.2" width="7.16" height="2.94" transform="translate(10.82 -37) rotate(32.17)"/><rect class="cls-5" x="63.63" y="2.53" width="7.16" height="2.94" transform="translate(12.45 -35.17) rotate(32.17)"/><rect class="cls-5" x="54.21" y="-3.39" width="7.16" height="2.94" transform="translate(7.85 -31.07) rotate(32.17)"/><rect class="cls-5" x="89.26" y="-2.19" width="7.16" height="2.94" transform="translate(13.87 -49.54) rotate(32.17)"/><rect class="cls-5" x="86.91" y="1.54" width="7.16" height="2.94" transform="translate(15.5 -47.72) rotate(32.17)"/><rect class="cls-5" x="84.56" y="5.28" width="7.16" height="2.94" transform="translate(17.13 -45.9) rotate(32.17)"/><rect class="cls-5" x="82.21" y="9.01" width="7.16" height="2.94" transform="translate(18.75 -44.07) rotate(32.17)"/><rect class="cls-5" x="79.86" y="12.74" width="7.16" height="2.94" transform="translate(20.38 -42.25) rotate(32.17)"/><rect class="cls-5" x="101.05" y="0.02" width="7.16" height="2.94" transform="translate(16.86 -55.48) rotate(32.17)"/><rect class="cls-5" x="98.7" y="3.75" width="7.16" height="2.94" transform="translate(18.49 -53.66) rotate(32.17)"/><rect class="cls-5" x="96.35" y="7.49" width="7.16" height="2.94" transform="translate(20.11 -51.84) rotate(32.17)"/><rect class="cls-5" x="94.01" y="11.22" width="7.16" height="2.94" transform="translate(21.74 -50.01) rotate(32.17)"/><rect class="cls-5" x="91.66" y="14.95" width="7.16" height="2.94" transform="translate(23.37 -48.19) rotate(32.17)"/><rect class="cls-5" x="89.31" y="18.69" width="7.16" height="2.94" transform="translate(25 -46.37) rotate(32.17)"/><rect class="cls-5" x="101.18" y="15.73" width="7.16" height="2.94" transform="translate(25.25 -53.14) rotate(32.17)"/><rect class="cls-5" x="98.83" y="19.47" width="7.16" height="2.94" transform="translate(26.87 -51.32) rotate(32.17)"/><rect class="cls-5" x="96.48" y="23.2" width="7.16" height="2.94" transform="translate(28.5 -49.49) rotate(32.17)"/><rect class="cls-5" x="73.22" y="3.84" width="8.69" height="2.94" transform="translate(14.74 -40.49) rotate(32.17)"/><rect class="cls-5" x="70.87" y="7.57" width="8.69" height="2.94" transform="translate(16.36 -38.66) rotate(32.17)"/><rect class="cls-5" x="61.48" y="5.95" width="7.16" height="2.94" transform="translate(13.94 -33.5) rotate(32.17)"/><rect class="cls-5" x="59.13" y="9.69" width="7.16" height="2.94" transform="translate(15.57 -31.68) rotate(32.17)"/><rect class="cls-5" x="52.06" y="0.03" width="7.16" height="2.94" transform="translate(9.34 -29.4) rotate(32.17)"/><rect class="cls-5" x="49.71" y="3.77" width="7.16" height="2.94" transform="matrix(0.85, 0.53, -0.53, 0.85, 10.97, -27.57)"/><rect class="cls-5" x="44.7" y="-4.6" width="7.16" height="2.94" transform="matrix(0.85, 0.53, -0.53, 0.85, 5.75, -26.19)"/><rect class="cls-5" x="42.35" y="-0.86" width="7.16" height="2.94" transform="translate(7.38 -24.37) rotate(32.17)"/><rect class="cls-5" x="77.71" y="16.17" width="7.16" height="2.94" transform="translate(21.87 -40.58) rotate(32.17)"/><rect class="cls-5" x="75.36" y="19.9" width="7.16" height="2.94" transform="translate(23.5 -38.75) rotate(32.17)"/><rect class="cls-5" x="87.16" y="22.11" width="7.16" height="2.94" transform="translate(26.49 -44.69) rotate(32.17)"/><rect class="cls-5" x="84.81" y="25.84" width="7.16" height="2.94" transform="translate(28.12 -42.87) rotate(32.17)"/><rect class="cls-5" x="94.33" y="26.62" width="7.16" height="2.94" transform="translate(29.99 -47.82) rotate(32.17)"/><rect class="cls-5" x="91.98" y="30.36" width="7.16" height="2.94" transform="translate(31.62 -46) rotate(32.17)"/><rect class="cls-5" x="100.07" y="34.85" width="11.41" height="4.71" transform="translate(36.05 -50.61) rotate(32.17)"/><rect class="cls-5" x="68.72" y="10.99" width="8.69" height="2.94" transform="translate(17.86 -36.99) rotate(32.17)"/><rect class="cls-5" x="66.37" y="14.73" width="8.69" height="2.94" transform="translate(19.48 -35.17) rotate(32.17)"/><path class="cls-5" d="M16.56,31.91l-4.42-2c1.68-.63,3.28-1.22,4.73-1.73l1,.61Z"/><path class="cls-5" d="M24.57,35.49l-7.08-3.16,1.26-3c2.09,1.25,4.4,2.51,6.82,3.76Z"/><path class="cls-5" d="M14.76,36.21l-1.32-.56L8.17,36,8,31.53l2.8-1.08,5.39,2.41Z"/><path class="cls-5" d="M1.81,117.86s-10.89-4.13-12.7-9.68S-13.26,104-16.5,97.49s-3.72-31.19-5.25-38.08S-26.89,28.65-30,26.91s-2.2,1.19-.22,5.36,9.45,23.53,5.87,31.52S-28.8,76.54-26,82.25-17.61,97-14.93,105.17s12.3,16,14.49,17.3Z"/><path class="cls-5" d="M3.25,6.88c-5.18-3.5-10-7.14-12.82-10.2C-8.34-5.37-8.24-3.23-6-7.91s-1.1-8.45,2.55-10.25,4.87-3.16,9.58,2.59a21.19,21.19,0,0,0,7.67,6.15C11.19-5.75,6.34,1.33,3.25,6.88Z"/><path class="cls-5" d="M21.85,3.65C17.49.93,14.33-1.14,13-2L14.86-4.7C16.51-3.56,19.61-1.55,23.5.85Z"/><path class="cls-5" d="M71.5,25.1c-2.65-1-5.43-2.21-8.27-3.52L64,19.85c2.41,1.11,5.12,2.31,8.22,3.63Z"/><path class="cls-5" d="M69.83,29c-2.66-1-5.44-2.19-8.29-3.5.46-1.08.9-2.09,1.29-3C65.65,23.8,68.43,25,71.1,26,70.71,26.92,70.28,27.92,69.83,29Z"/><path class="cls-5" d="M68.42,32.28c-2.65-1-5.44-2.16-8.3-3.45l1-2.41c2.83,1.29,5.61,2.48,8.28,3.51C69.1,30.69,68.77,31.47,68.42,32.28Z"/><path class="cls-5" d="M67.58,34.28q-4.6-1-8.87-2.12l1-2.41c2.84,1.29,5.64,2.46,8.3,3.47C67.88,33.57,67.73,33.92,67.58,34.28Z"/><path class="cls-5" d="M78.48,27.48c-1.9-.55-3.92-1.23-6-2,.25-.59.49-1.12.68-1.58,1.86.79,3.85,1.61,6,2.48C79.13,26.36,78.89,26.76,78.48,27.48Z"/><path class="cls-5" d="M76.37,31.22c-1.77-.51-3.64-1.14-5.59-1.86.46-1.07.89-2.07,1.27-3,2.06.78,4,1.45,5.91,2C77.52,29.16,77,30.12,76.37,31.22Z"/><path class="cls-5" d="M74.68,34.36c-1.68-.47-3.45-1-5.3-1.72.34-.81.68-1.6,1-2.35,1.9.71,3.74,1.34,5.49,1.85C75.49,32.84,75.09,33.58,74.68,34.36Z"/><path class="cls-5" d="M34,31.49A116.52,116.52,0,0,1,22.6,25.56l1.6-2.68c2.87,1.45,6.61,3.22,11.08,5.08C34.84,29.11,34.43,30.28,34,31.49Z"/><path class="cls-5" d="M44.86,36.15c-3.36-1.36-6.72-2.79-9.89-4.23.4-1.23.82-2.41,1.26-3.57,2.94,1.2,6.18,2.43,9.68,3.64C45.6,33.43,45.26,34.82,44.86,36.15Z"/><path class="cls-5" d="M62.3,21.16c-2.81-1.31-5.66-2.71-8.51-4.17.38-.6.77-1.15,1.14-1.65,2.28,1.24,4.92,2.58,8.12,4.08C62.84,19.9,62.58,20.48,62.3,21.16Z"/><path class="cls-5" d="M60.61,25.07c-2.89-1.34-5.85-2.79-8.79-4.3a19.93,19.93,0,0,1,1.44-2.93c2.86,1.47,5.77,2.9,8.64,4.23C61.51,23,61.07,24,60.61,25.07Z"/><path class="cls-5" d="M59.18,28.41c-2.72-1.25-5.5-2.6-8.28-4,0-.25.08-.49.11-.74a12.76,12.76,0,0,1,.47-1.94c2.9,1.48,5.83,2.93,8.73,4.27C59.88,26.77,59.54,27.58,59.18,28.41Z"/><path class="cls-5" d="M57.72,31.89q-4-1.09-7.69-2.3c.25-1.33.48-2.72.71-4.16,2.68,1.36,5.39,2.67,8,3.9Z"/><path class="cls-5" d="M51.8,13.55c-.4.55-.8,1.14-1.19,1.78-2-1.08-4.08-2.18-6.08-3.28.55-.86,1-1.6,1.49-2.22C47.8,11.06,49.64,12.27,51.8,13.55Z"/><path class="cls-5" d="M48.63,19.11C46.5,18,44.38,16.84,42.3,15.68c.59-1,1.16-1.95,1.69-2.79,2,1.09,4,2.19,6.1,3.3A24.85,24.85,0,0,0,48.63,19.11Z"/><path class="cls-5" d="M47.56,22.67c-2.37-1.23-4.73-2.5-7-3.78.44-.82.87-1.6,1.28-2.34,2.09,1.16,4.26,2.33,6.47,3.5A16.9,16.9,0,0,0,47.56,22.67Z"/><path class="cls-5" d="M46.85,27c-2.75-1.41-5.5-2.88-8.2-4.36.47-1,.94-1.94,1.41-2.86,2.36,1.3,4.82,2.62,7.32,3.93h0C47.21,24.85,47,25.94,46.85,27Z"/><path class="cls-5" d="M46.6,28.44c-3.26-1.12-6.28-2.27-9-3.4.21-.5.43-1,.64-1.47,2.81,1.54,5.65,3.06,8.45,4.49C46.65,28.19,46.63,28.31,46.6,28.44Z"/><path class="cls-5" d="M36.62,24.65q-2.32-1-4.38-1.89l.9-2c1.38.78,2.77,1.56,4.19,2.34C37.09,23.59,36.86,24.11,36.62,24.65Z"/><path class="cls-5" d="M31.31,22.33c-2.22-1-4.16-2-5.79-2.79.44-.77.91-1.57,1.41-2.38,1.72,1,3.5,2,5.32,3.07Z"/><path class="cls-5" d="M32.66,19.3c-1.78-1-3.52-2-5.2-3,.56-.9,1.14-1.81,1.72-2.72,1.57.92,3.16,1.85,4.76,2.77l0,0Z"/><path class="cls-5" d="M34.38,15.43c-1.6-.92-3.16-1.82-4.66-2.71.5-.76,1-1.51,1.48-2.24,1.4.83,2.83,1.67,4.27,2.5Z"/><path class="cls-5" d="M41.4,15.18c-3.36-1.87-6.61-3.74-9.65-5.53.64-1,1.26-1.86,1.84-2.7Q35.78,8.24,38,9.52c1.61.93,3.31,1.89,5.08,2.87C42.56,13.23,42,14.17,41.4,15.18Z"/><path class="cls-5" d="M45.18,9.25c-.45.64-1,1.41-1.55,2.3-3.29-1.83-6.49-3.66-9.47-5.42C35,4.85,35.78,3.79,36.3,3.06c.88.57,1.74,1.15,2.58,1.73C41.2,6.41,43.18,7.85,45.18,9.25Z"/><path class="cls-5" d="M33.27,1.12C32.73,1.9,32,3,31.07,4.29,28.84,3,26.76,1.69,24.87.52l1.91-3.26C28.86-1.54,31.07-.24,33.27,1.12Z"/><path class="cls-5" d="M30.5,5.12c-.58.84-1.2,1.74-1.84,2.69-2.13-1.28-4.13-2.5-5.94-3.62l1.64-2.8C26.27,2.56,28.34,3.83,30.5,5.12Z"/><path class="cls-5" d="M28.11,8.65c-.49.73-1,1.48-1.47,2.23-2.07-1.24-4-2.42-5.77-3.52l1.34-2.3C24.05,6.19,26,7.4,28.11,8.65Z"/><path class="cls-5" d="M26.09,11.73c-.58.91-1.16,1.82-1.71,2.73-2-1.2-3.92-2.36-5.66-3.43l1.64-2.79C22.14,9.34,24.08,10.51,26.09,11.73Z"/><path class="cls-5" d="M22.35,17.87c-1.87-1-2.87-1.64-2.92-1.67l-.32.51-2.77-1.62,1.86-3.17c1.59,1,3.31,2,5.12,3.1l.52.32C23.32,16.2,22.82,17.05,22.35,17.87Z"/><path class="cls-5" d="M11.5,12.17C9.78,11.12,8,10,6.25,8.86,6.83,7.8,7.48,6.68,8.19,5.54,9,6.1,10.13,6.83,11.5,7.72Z"/><path class="cls-5" d="M15.46,14.57c-.94-.56-1.93-1.15-2.94-1.77V8.38l4.8,3Z"/><path class="cls-5" d="M17.85,10.49c-4.21-2.6-7.44-4.68-9.14-5.82.57-.92,1.16-1.85,1.75-2.78C12,3,15.3,5.11,19.49,7.7Z"/><path class="cls-5" d="M20,6.83C15.6,4.09,12.37,2,11,1.05c.5-.76,1-1.52,1.48-2.24C14-.15,17.2,2,21.34,4.52Z"/><path class="cls-5" d="M83.37,28.89S79.24,34.72,80,36.81s4,.1,7.17,1.71,14.74,6.79,17.07,6.67-7.57-6.38-10.15-8.34S84.72,26.79,83.37,28.89Z"/><path class="cls-5" d="M1.9,10c-6.48,7.24-18.39,7.89-22.9,7.85a17.8,17.8,0,0,0-2.19-5.94C-26,8-28.49,6.42-21.11,4.64s10-5.95,10-5.95A100.11,100.11,0,0,0,1.9,10Z"/><path class="cls-5" d="M9.35,20.6-7.15,24l-.74-6.91-.26,0A23.49,23.49,0,0,0,2.73,10.59c2.88,2.09,5.63,3.92,8,5.41C10.46,17,10,18.64,9.35,20.6Z"/><path class="cls-5" d="M6.26,28.29a90.76,90.76,0,0,1-9.94,3.18,16.68,16.68,0,0,1-2.61.41L-7,25,9,21.73C8.26,23.67,7.37,25.91,6.26,28.29Z"/><path class="cls-5" d="M18.52,20.54,14.58,25s-3.08,1.29-7,2.74a74.65,74.65,0,0,0,4-11.22C15.74,19.1,18.52,20.54,18.52,20.54Z"/></g></g></g><path class="cls-6" d="M68.36,7.69c.3-.25.55-.44.78-.61l0,0a1,1,0,0,1,1.38,0l0,0c.14.16.3.36.49.61h0a6.56,6.56,0,0,1,.45.63l0,0a1.12,1.12,0,0,1-.34,1.39h0q-.3.27-.75.63h0c-.3.24-.55.43-.77.59l0,0a1,1,0,0,1-1.38,0l0,0q-.21-.24-.48-.6h0q-.27-.36-.45-.63l0,0a1.1,1.1,0,0,1,.34-1.39l0,0,.75-.62Z"/><path class="cls-7" d="M88.68,15.6a1.76,1.76,0,0,1-1.61,1.31A1,1,0,0,1,86,16L85.87,4.5a.65.65,0,0,0-.69-.65,1.15,1.15,0,0,0-1,.65L78.57,16a1.75,1.75,0,0,1-1.48.95,1,1,0,0,1-1-1.31,1.48,1.48,0,0,1,.13-.35L81.88,3.71a4.67,4.67,0,0,1,4-2.57,2.6,2.6,0,0,1,2.73,2.57l.16,11.54a1.45,1.45,0,0,1,0,.35"/><path class="cls-7" d="M61.11,4.5a.65.65,0,0,0-.69-.65,1.15,1.15,0,0,0-1,.65L53.81,16a1.77,1.77,0,0,1-1.48.95,1,1,0,0,1-1-1.31,1.48,1.48,0,0,1,.13-.35L57.11,3.71a4.69,4.69,0,0,1,4-2.56,2.58,2.58,0,0,1,2.73,2.56l.14,9.63a1,1,0,0,0,1,1h3.37A7.09,7.09,0,0,0,74.85,9a4,4,0,0,0-4-5.27H67.4a1,1,0,0,1-1-1.31A1.75,1.75,0,0,1,68,1.15h3.43c4.35,0,7,3.52,6,7.88a10.62,10.62,0,0,1-9.76,7.88H64.33A2.92,2.92,0,0,1,61.25,14Z"/><path class="cls-7" d="M55.05,2.48a1.71,1.71,0,0,1-.6.91,1.59,1.59,0,0,1-1,.39H49.73l-2.8,11.8a1.75,1.75,0,0,1-1.6,1.29,1,1,0,0,1-1-1.29l2.81-11.8H43.44a1,1,0,0,1-1-1.3,1.75,1.75,0,0,1,1.6-1.29h10a1,1,0,0,1,1,1.29"/><text class="cls-8" transform="matrix(0.97, 0, -0.23, 0.97, 38.54, 28.2)">TRUCK</text><path class="cls-9" d="M40.49,0c-.43,2-.79,3.73-1.23,5.5-1.16,4.68-2.38,9.35-3.54,14-.29,1.22-.88,1.86-2.22,1.7-.84-.09-1.71.08-2.54,0-5.72-.73-8.73,3.14-11.65,7-.81,1.05-1.66.76-2.53.69-.27,0-.66-.78-.67-1.21-.1-3.3-2-5.36-4.82-5.21S6.81,24.86,7,28.18a3.43,3.43,0,0,1-.12.68,52.43,52.43,0,0,1-5.32-.05A1.81,1.81,0,0,1,0,26.58c.29-2.23.55-4.46,1-6.67C1.5,17.29,3,16,5.66,15.52a12.92,12.92,0,0,1,1.52-.21,9.55,9.55,0,0,0,8-4.66c3-4.48,7.93-6.77,13-8.29C31.75,1.3,35.45.78,39.08,0A9.26,9.26,0,0,1,40.49,0Z"/><path class="cls-9" d="M14.74,27.08a3.39,3.39,0,0,1-3.25,3.06,3.32,3.32,0,0,1-3-3.26,3.29,3.29,0,0,1,3.12-3A3.36,3.36,0,0,1,14.74,27.08Z"/><path class="cls-9" d="M29.38,27.29c-1.07,0-2.14,0-3.2,0-.3,0-.58-.35-.87-.54.28-.26.55-.74.84-.75,2.24-.07,4.49-.07,6.73,0,.29,0,.58.44.87.68-.33.22-.66.59-1,.61C31.62,27.34,30.5,27.29,29.38,27.29Z"/><polygon class="cls-9" points="86.34 1.23 102.86 1.89 86.34 2.54 86.34 1.23"/><polygon class="cls-9" points="87.34 4.3 93.1 4.96 87.34 5.61 87.34 4.3"/><polygon class="cls-9" points="86.76 7.26 95.74 7.97 86.75 8.58 86.76 7.26"/><path class="cls-10" d="M26,13.22c-.13.46-.87.85-1.41,1a31.64,31.64,0,0,1-3.91,1.12,3.67,3.67,0,0,1-2.3,0c-.41-.21-.56-1.27-.5-1.92.28-3,1.95-4.41,5-4.42S26.91,10.19,26,13.22Z"/></svg>