<svg xmlns="http://www.w3.org/2000/svg" xmlns:xlink="http://www.w3.org/1999/xlink" viewBox="0 0 153.87 49.45"><defs><style>.cls-1,.cls-2{fill-rule:evenodd;}.cls-1{fill:url(#linear-gradient);}.cls-2,.cls-3,.cls-4{fill:#1e2e3d;}.cls-3{font-size:13.25px;font-family:SVN-PoppinsLight, SVN-Poppins;font-weight:300;letter-spacing:0.54em;}.cls-5{fill:url(#linear-gradient-2);}</style><linearGradient id="linear-gradient" x1="100.41" y1="13.51" x2="107.17" y2="13.51" gradientUnits="userSpaceOnUse"><stop offset="0" stop-color="#fab91a"/><stop offset="1" stop-color="#ffd424"/></linearGradient><linearGradient id="linear-gradient-2" x1="26.74" y1="18.4" x2="39.41" y2="18.4" xlink:href="#linear-gradient"/></defs><g id="Layer_2" data-name="Layer 2"><g id="Layer_1-2" data-name="Layer 1"><path class="cls-1" d="M102.26,11.5c.45-.37.83-.66,1.16-.91l0,0a1.52,1.52,0,0,1,2.07,0l0,0c.21.25.45.54.73.91h0c.28.36.5.67.67.94l0,0a1.65,1.65,0,0,1-.5,2.08l0,0c-.31.27-.68.58-1.13.94h0c-.44.36-.82.66-1.15.89l0,0a1.53,1.53,0,0,1-2.07,0l0,0q-.32-.36-.72-.9h0c-.27-.36-.5-.67-.68-.94l0,0a1.65,1.65,0,0,1,.5-2.08l0,0c.31-.27.68-.58,1.13-.94Z"/><path class="cls-2" d="M132.65,23.34a2.61,2.61,0,0,1-2.41,1.95,1.48,1.48,0,0,1-1.55-1.42l-.24-17.14a1,1,0,0,0-1-1,1.74,1.74,0,0,0-1.49,1l-8.39,17.14a2.64,2.64,0,0,1-2.23,1.42,1.48,1.48,0,0,1-1.48-1.95,2.1,2.1,0,0,1,.19-.53l8.46-17.26a7,7,0,0,1,5.9-3.84,3.88,3.88,0,0,1,4.09,3.84l.24,17.26a1.63,1.63,0,0,1-.06.53"/><path class="cls-2" d="M91.41,6.73a1,1,0,0,0-1-1,1.73,1.73,0,0,0-1.48,1L80.49,23.87a2.64,2.64,0,0,1-2.22,1.43,1.5,1.5,0,0,1-1.49-2,2.62,2.62,0,0,1,.2-.53L85.43,5.55a7,7,0,0,1,5.91-3.84,3.86,3.86,0,0,1,4.08,3.84L95.63,20a1.45,1.45,0,0,0,1.53,1.45h5A10.6,10.6,0,0,0,112,13.5c1-4.35-1.65-7.87-6-7.87h-5.13a1.5,1.5,0,0,1-1.48-2,2.63,2.63,0,0,1,2.41-2h5.14c6.5,0,10.53,5.28,9,11.79s-8.09,11.8-14.6,11.8h-5A4.36,4.36,0,0,1,91.63,21Z"/><path class="cls-2" d="M82.34,3.71a2.53,2.53,0,0,1-.89,1.37,2.44,2.44,0,0,1-1.51.57H74.4L70.19,23.31a2.6,2.6,0,0,1-2.38,1.93,1.48,1.48,0,0,1-1.48-1.93l4.2-17.66H65a1.48,1.48,0,0,1-1.47-1.94A2.61,2.61,0,0,1,65.9,1.77h15a1.48,1.48,0,0,1,1.47,1.94"/><text class="cls-3" transform="matrix(0.97, 0, -0.23, 0.97, 57.65, 42.18)">TRUCK</text><path class="cls-4" d="M60.58,0C59.92,3,59.39,5.63,58.73,8.27c-1.74,7-3.56,14-5.29,21-.45,1.83-1.32,2.78-3.33,2.55-1.25-.14-2.55.11-3.79,0-8.57-1.1-13.06,4.68-17.44,10.42-1.2,1.56-2.48,1.14-3.79,1-.39,0-1-1.18-1-1.82-.15-4.93-3-8-7.22-7.8s-6.69,3.57-6.35,8.54a6,6,0,0,1-.18,1,78.29,78.29,0,0,1-8-.08C.73,42.93-.19,41.54,0,39.76c.44-3.33.82-6.68,1.45-10,.76-3.93,3-5.89,7-6.58a21.9,21.9,0,0,1,2.26-.31c5.18-.32,8.88-2.3,12-7C27.22,9.23,34.6,5.81,42.19,3.53,47.49,1.94,53,1.16,58.46.05A13,13,0,0,1,60.58,0Z"/><path class="cls-4" d="M22,40.5a5.07,5.07,0,0,1-4.85,4.59,5,5,0,0,1-4.53-4.88,4.94,4.94,0,0,1,4.68-4.43A5,5,0,0,1,22,40.5Z"/><path class="cls-4" d="M43.94,40.83c-1.59,0-3.19.06-4.77,0-.46,0-.88-.52-1.31-.8.42-.39.83-1.11,1.26-1.12,3.35-.1,6.71-.11,10.06,0,.44,0,.87.67,1.31,1-.5.32-1,.87-1.52.91C47.3,40.9,45.62,40.82,43.94,40.83Z"/><polygon class="cls-4" points="129.16 1.84 153.87 2.82 129.16 3.81 129.16 1.84"/><polygon class="cls-4" points="130.64 6.43 139.26 7.41 130.64 8.4 130.64 6.43"/><polygon class="cls-4" points="129.78 10.87 143.22 11.92 129.77 12.84 129.78 10.87"/><path class="cls-5" d="M38.9,19.78c-.19.68-1.3,1.27-2.1,1.56A44.64,44.64,0,0,1,31,23a5.55,5.55,0,0,1-3.45,0c-.61-.32-.84-1.91-.75-2.89.42-4.49,2.92-6.59,7.54-6.6S40.26,15.24,38.9,19.78Z"/></g></g></svg>