<svg id="Layer_1" data-name="Layer 1" xmlns="http://www.w3.org/2000/svg" xmlns:xlink="http://www.w3.org/1999/xlink" viewBox="0 0 243.51 78.28"><defs><style>.cls-1{fill:none;}.cls-2{clip-path:url(#clip-path);}.cls-3{opacity:0.15;}.cls-4,.cls-6,.cls-7{fill:#fff;}.cls-5,.cls-6{fill-rule:evenodd;}.cls-5{fill:url(#New_Gradient_Swatch);}.cls-7{font-size:20.97px;font-family:SVN-PoppinsLight, SVN-Poppins;font-weight:300;letter-spacing:0.54em;}.cls-8{fill:url(#New_Gradient_Swatch-2);}</style><clipPath id="clip-path"><rect class="cls-1" x="-375.51" y="-194.04" width="665.99" height="1669.98" transform="translate(598.44 683.47) rotate(90)"/></clipPath><linearGradient id="New_Gradient_Swatch" x1="158.9" y1="21.37" x2="169.61" y2="21.37" gradientUnits="userSpaceOnUse"><stop offset="0" stop-color="#ffd030"/><stop offset="1" stop-color="#fbbb30"/></linearGradient><linearGradient id="New_Gradient_Swatch-2" x1="42.32" y1="29.11" x2="62.36" y2="29.11" xlink:href="#New_Gradient_Swatch"/></defs><g class="cls-2"><g class="cls-3"><path class="cls-4" d="M-63.26,78.86l1.79-4.76L53.12,77.66a8.78,8.78,0,0,1-2,2.5c-2.2,1.9-5.33,2.68-9.32,2.34C30,81.47-51.25,79.2-63.26,78.86Z"/><path class="cls-4" d="M-66.06,86.34l2.23-6C-54,80.66,29.74,83,41.66,84c4.42.38,7.94-.53,10.48-2.72a10.85,10.85,0,0,0,2.68-3.59l11.8.36-.5,14.33s6.67-.07,13.66.26L68.55,105.13,54.35,91.9Z"/><polygon class="cls-4" points="29.87 69.83 28.3 50.69 38.89 51.38 40.44 70.3 29.87 69.83"/><polygon class="cls-4" points="40.18 48.39 39.83 44.11 44.35 48.66 40.18 48.39"/><polygon class="cls-4" points="14.79 46.72 12.94 24.14 20.08 24.21 25 29.16 26.5 47.49 14.79 46.72"/><polygon class="cls-4" points="16.63 69.26 15.04 49.81 26.75 50.59 28.32 69.77 16.63 69.26"/><polygon class="cls-4" points="0.21 68.55 -1.41 48.72 13.49 49.71 15.08 69.2 0.21 68.55"/><polygon class="cls-4" points="12.81 22.61 12.3 16.37 18.53 22.65 12.81 22.61"/><polygon class="cls-4" points="-1.66 45.62 -3.43 24.01 11.39 24.13 13.23 46.61 -1.66 45.62"/><polygon class="cls-4" points="-3.55 22.47 -4.89 6.23 2.24 6.23 10.62 14.68 11.27 22.59 -3.55 22.47"/><polygon class="cls-4" points="52.45 70.82 52.44 70.82 51.2 55.56 66.97 71.45 52.45 70.82"/><polygon class="cls-4" points="41.98 70.36 40.43 51.49 47.63 51.97 49.52 53.87 50.91 70.75 41.98 70.36"/><polygon class="cls-4" points="28.05 47.59 26.68 30.86 38.15 42.41 38.64 48.29 28.05 47.59"/><path class="cls-4" d="M251,24.12c-1-1.22-2.13-2.61-3.54-4.24-1.7-2-3.71-4.61-5.84-7.41A133.74,133.74,0,0,0,231.6.26l13.12.48c.79,1.3,1.6,2.67,2.41,4.06C251.39,12,256.06,20,260.76,25.3c-.46,2-1.22,4.06-2.22,4.68a1,1,0,0,1-1,.11C255.2,29.27,253.71,27.44,251,24.12Z"/><path class="cls-4" d="M252.08,33.64,220-.16l9.31.34h0c3.43,3.15,7.46,8.45,11.09,13.22,2.15,2.83,4.18,5.49,5.91,7.49,1.39,1.61,2.52,3,3.51,4.21,2.88,3.53,4.47,5.48,7.27,6.45a2.58,2.58,0,0,0,2.26-.27c1.31-.82,2.15-2.82,2.65-4.63a22,22,0,0,0,4.31,3.55c3.78,2.26,7.33,2.84,10.55,1.72,6-2.07,9.48-9.45,12.14-16.4,1.84-4.83,5.44-9.35,8.83-12.84L334.11,4c6.31,6.84,8.72,13.43,9.42,19.46-2.81-2.52-7.14-5.93-11.41-7.37a7,7,0,0,0-7.22,1.42,10.8,10.8,0,0,0-2,2.48c-.13.22-.25.43-.36.66A6.8,6.8,0,0,0,317.05,22c-5.16,4.38-14.75,3.43-18,1.81s-12.38,5.44-14.23,6.43-8,9.58-13.61,10.55S252.08,33.64,252.08,33.64Z"/><path class="cls-4" d="M211.54,63c4.83-10.71,2.65-11.35,5.43-24.35S222.72,7.73,218.39,18a39.14,39.14,0,0,1-2.12,4.25L200.8,16.81l1.08-24.95L215-7.79A20.18,20.18,0,0,0,219.8,7.7c6.26,7.41,13.36,13.43,8.68,16.31s-2.75,12.47-2,20.33-3.24,16.57-9,22.21S206.71,73.73,211.54,63Z"/><polygon class="cls-4" points="186.76 11.89 190.69 -8.42 200.34 -8.17 199.28 16.28 186.76 11.89"/><polygon class="cls-4" points="168.03 5.34 174.98 -8.83 189.13 -8.47 185.3 11.38 168.03 5.34"/><path class="cls-4" d="M156.91,1.44a82.2,82.2,0,0,1,4.74-10.61l11.64.29-6.72,13.7Z"/><path class="cls-4" d="M152.74,16.71c.48-2.08,1-4.24,1.54-6.52.61-2.57,1.33-5,2.12-7.3l9.65,3.38-3.14,13.32Z"/><path class="cls-4" d="M149.88,15.42,128.09,1.79,128.52-10l29.71.77A84.75,84.75,0,0,0,151.28,9.5Q150.54,12.58,149.88,15.42Z"/><path class="cls-4" d="M125.66,26.52a35,35,0,0,0-4.47-3.17l.12-9.26,4.79.44Z"/><polygon class="cls-4" points="121.32 12.55 121.44 2.54 126.51 2.92 126.15 12.99 121.32 12.55"/><polygon class="cls-4" points="121.46 1 121.6 -10.22 126.99 -10.08 126.57 1.39 121.46 1"/><polygon class="cls-4" points="114.27 0.47 114.23 -10.41 120.07 -10.26 119.94 0.89 114.27 0.47"/><polygon class="cls-4" points="114.3 11.92 114.27 2.01 119.91 2.43 119.92 2.43 119.79 12.42 114.3 11.92"/><path class="cls-4" d="M114.32,20.47l0-7,5.47.5-.1,8.54A23.42,23.42,0,0,0,114.32,20.47Z"/><path class="cls-4" d="M107.76,20.46l-.41-7.63,5.41.49,0,6.86a15,15,0,0,0-2.09-.13A10.93,10.93,0,0,0,107.76,20.46Z"/><polygon class="cls-4" points="107.26 11.28 106.74 1.45 112.73 1.89 112.76 11.78 107.26 11.28"/><polygon class="cls-4" points="106.65 -0.1 106.08 -10.62 112.7 -10.44 112.72 0.35 106.65 -0.1"/><polygon class="cls-4" points="98.03 10.45 97.41 0.75 105.19 1.33 105.73 11.14 98.03 10.45"/><path class="cls-4" d="M98.61,19.66,98.12,12l7.69.69h0l.44,8.17.48,0a7.38,7.38,0,0,0-1.64,1,8.07,8.07,0,0,0-.92-.6A12.57,12.57,0,0,0,98.61,19.66Z"/><path class="cls-4" d="M93.12,20.26l-1.33-8.83,4.79.43.49,7.79A18.68,18.68,0,0,0,93.12,20.26Z"/><polygon class="cls-4" points="91.56 9.86 90.12 0.21 95.85 0.64 96.47 10.31 91.56 9.86"/><polygon class="cls-4" points="82.18 9.01 79.79 -0.56 88.55 0.1 89.99 9.72 82.18 9.01"/><path class="cls-4" d="M51.59,48.71,27.85,25.42,51,27.3,50,14.71l33.79.79-1.23-4.91,7.65.69,1.42,9.43a29,29,0,0,0-7.09,3.62C80.32,27.24,76.91,31,73.61,34.55,67.59,41.1,61.88,47.32,51.59,48.71Z"/><path class="cls-4" d="M75.23,71.92,54.29,51.37a30,30,0,0,0,12.23-5.69L97.59,68.16,95.15,73.1Z"/><path class="cls-4" d="M98.27,66.76,67.77,44.68a84.45,84.45,0,0,0,8.11-8c3.18-3.46,6.47-7.05,10.42-9.76,6.11-4.2,12.22-5.3,16.36-3,2.73,1.54,4.17,4.49,3.94,8.08a22.38,22.38,0,0,0,3,12Z"/><path class="cls-4" d="M131.12,31.94a43.27,43.27,0,0,0-4-4.12L128,3.56,149.52,17c-2.08,9.24-3.33,17.18-2.28,25.71A33.73,33.73,0,0,1,131.12,31.94Z"/><path class="cls-4" d="M126,70.47a23.48,23.48,0,0,0-2.66-9.3,118.18,118.18,0,0,0-6.69-11.33c-4.13-6.42-7.39-11.49-7-17.66a11.9,11.9,0,0,0-2.31-8.2,6.57,6.57,0,0,1,3.36-.86c5.38,0,12.46,4.2,18.05,10.8a35.94,35.94,0,0,0,19,12.14A61.7,61.7,0,0,0,152.31,60a29.49,29.49,0,0,1,2.44,12Z"/><path class="cls-4" d="M96.81,73.2l13.63-27.6c1.1,1.93,2.35,3.87,3.66,5.9a120.38,120.38,0,0,1,6.52,11c5.46,10.84-.13,16.51-.94,17.26l-5.86,3.29c-2.72-5.37-4.8-9.18-4.8-9.18Z"/><path class="cls-4" d="M133.93,117.21,121.74,82.09a13.81,13.81,0,0,0,3.4-5.33A15.86,15.86,0,0,0,126,72l28.69,1.43c-.43,13.7-7.87,26.77-8.4,27.68a11,11,0,0,0-1.2,9.09,18.21,18.21,0,0,0,3.9,7Z"/><path class="cls-4" d="M157.36,78.68a44.89,44.89,0,0,0,.41-4.52l15.87,5.91-2.27,3.79Z"/><path class="cls-4" d="M180.85,81.11l5.34-17,12.47,3.5c-2.27,5.91-4.94,11.87-7.5,17.4Z"/><polygon class="cls-4" points="169.7 76.96 173.99 60.64 178.96 62.03 174.26 78.66 169.7 76.96"/><polygon class="cls-4" points="163.91 74.8 167.46 58.81 172.5 60.22 168.25 76.41 163.91 74.8"/><path class="cls-4" d="M157.81,72.53a32.78,32.78,0,0,0-2.7-13.85c-.59-1.3-1.12-2.56-1.59-3.79L166,58.39l-3.52,15.87Z"/><path class="cls-4" d="M152.86,53.11A49.16,49.16,0,0,1,150,39.33l19,5.52-2.67,12Z"/><polygon class="cls-4" points="167.8 57.3 170.46 45.27 176.01 46.89 172.9 58.73 167.8 57.3"/><polygon class="cls-4" points="174.38 59.15 177.49 47.32 182.7 48.82 179.38 60.55 174.38 59.15"/><polygon class="cls-4" points="180.87 60.97 184.18 49.25 188.79 50.59 185.16 62.17 180.87 60.97"/><polygon class="cls-4" points="186.64 62.59 190.27 51.03 196.31 52.77 192.35 64.19 186.64 62.59"/><path class="cls-4" d="M193.83,64.61l4-11.4,5.09,1.47a111.56,111.56,0,0,1-3.67,11.44Z"/><path class="cls-4" d="M198.29,51.75l2.28-6.58,4,1.17c-.16.78-.3,1.59-.43,2.43-.22,1.43-.51,2.91-.87,4.43Z"/><path class="cls-4" d="M201.07,43.72l3.7-10.67,4,1.14a42.65,42.65,0,0,0-3.93,10.64Z"/><path class="cls-4" d="M205.27,31.6l3.58-10.34,6.62,2.31c-1.91,3.11-4,5.91-5.92,9.24Z"/><polygon class="cls-4" points="197.07 29.28 200.49 18.34 207.4 20.75 203.79 31.18 197.07 29.28"/><polygon class="cls-4" points="193.27 41.42 193.27 41.42 196.61 30.74 203.28 32.63 199.6 43.28 193.27 41.42"/><polygon class="cls-4" points="190.72 49.56 192.81 42.89 199.09 44.74 196.81 51.33 190.72 49.56"/><polygon class="cls-4" points="184.6 47.78 186.51 41.04 191.34 42.46 189.25 49.13 184.6 47.78"/><polygon class="cls-4" points="186.92 39.56 189.95 28.86 195.13 30.32 191.8 40.99 186.92 39.56"/><polygon class="cls-4" points="190.37 27.38 193.61 15.93 199.04 17.83 199.05 17.83 195.59 28.86 190.37 27.38"/><polygon class="cls-4" points="183.26 25.36 186.41 13.4 192.16 15.41 188.89 26.96 183.26 25.36"/><polygon class="cls-4" points="180.06 37.54 182.87 26.85 188.47 28.44 185.45 39.13 180.06 37.54"/><polygon class="cls-4" points="177.88 45.83 179.67 39.03 185.03 40.61 183.12 47.36 177.88 45.83"/><polygon class="cls-4" points="170.79 43.77 172.33 36.88 178.19 38.6 176.4 45.4 170.79 43.77"/><polygon class="cls-4" points="172.66 35.37 175.04 24.63 181.39 26.43 178.58 37.1 172.66 35.37"/><polygon class="cls-4" points="175.38 23.12 178.18 10.52 184.95 12.89 181.78 24.95 175.38 23.12"/><polygon class="cls-4" points="164.39 20.01 167.52 6.78 176.71 10 173.9 22.7 164.39 20.01"/><polygon class="cls-4" points="161.54 32.1 164.04 21.51 173.56 24.21 171.18 34.93 161.54 32.1"/><polygon class="cls-4" points="159.55 40.51 161.18 33.6 170.85 36.44 169.31 43.34 159.55 40.51"/><path class="cls-4" d="M149.93,37.72a56.49,56.49,0,0,1,.32-7.33l9.45,2.78-1.63,6.91Z"/><path class="cls-4" d="M150.44,28.84c.44-3.37,1.12-6.87,2-10.63l10.16,2.88-2.5,10.58Z"/></g></g><path class="cls-5" d="M161.83,18.2c.72-.58,1.31-1.05,1.84-1.43l0-.05a2.45,2.45,0,0,1,3.29,0l0,0c.33.39.72.86,1.15,1.44h0c.44.57.79,1.07,1.06,1.49l0,0a2.61,2.61,0,0,1-.79,3.29l0,0c-.48.43-1.07.92-1.78,1.49h0c-.71.57-1.31,1-1.83,1.42l0,0a2.45,2.45,0,0,1-3.29,0l0,0c-.33-.39-.71-.86-1.14-1.43h0c-.44-.57-.79-1.07-1.08-1.49l0,0a2.62,2.62,0,0,1,.79-3.29l.05,0c.48-.42,1.07-.91,1.78-1.48Z"/><path class="cls-6" d="M209.93,36.94A4.15,4.15,0,0,1,206.11,40a2.33,2.33,0,0,1-2.45-2.26l-.39-27.11a1.53,1.53,0,0,0-1.62-1.55,2.79,2.79,0,0,0-2.36,1.55L186,37.77A4.16,4.16,0,0,1,182.49,40a2.35,2.35,0,0,1-2.35-3.09,3.49,3.49,0,0,1,.31-.85l13.39-27.3a11,11,0,0,1,9.34-6.08,6.12,6.12,0,0,1,6.46,6.08l.38,27.3a3.12,3.12,0,0,1-.09.85"/><path class="cls-6" d="M144.66,10.66A1.54,1.54,0,0,0,143,9.11a2.76,2.76,0,0,0-2.35,1.55L127.39,37.78A4.22,4.22,0,0,1,123.87,40a2.37,2.37,0,0,1-2.36-3.1,4.24,4.24,0,0,1,.31-.84L135.2,8.79a11.07,11.07,0,0,1,9.36-6.08A6.11,6.11,0,0,1,151,8.79l.33,22.79a2.3,2.3,0,0,0,2.43,2.29l8,0c6.89,0,13.8-5.58,15.44-12.47S174.58,8.9,167.68,8.9h-8.13a2.36,2.36,0,0,1-2.34-3.09A4.16,4.16,0,0,1,161,2.71h8.13c10.3,0,16.68,8.35,14.22,18.66S170.57,40,160.27,40h-8a6.91,6.91,0,0,1-7.3-6.86Z"/><path class="cls-6" d="M130.31,5.87A4,4,0,0,1,128.9,8a3.79,3.79,0,0,1-2.38.91h-8.78l-6.65,27.94a4.12,4.12,0,0,1-3.78,3.06A2.35,2.35,0,0,1,105,36.88l6.65-27.94h-8.79a2.35,2.35,0,0,1-2.33-3.07,4.14,4.14,0,0,1,3.79-3.06H128a2.33,2.33,0,0,1,2.33,3.06"/><text class="cls-7" transform="matrix(0.97, 0, -0.23, 0.97, 91.23, 66.78)">TRUCK</text><path class="cls-4" d="M95.86.06c-1,4.62-1.87,8.85-2.91,13-2.75,11.09-5.64,22.15-8.38,33.24-.7,2.89-2.09,4.39-5.27,4-2-.22-4,.17-6-.07-13.56-1.73-20.67,7.42-27.6,16.49-1.9,2.48-3.93,1.8-6,1.64-.62,0-1.54-1.85-1.57-2.87-.23-7.8-4.66-12.68-11.42-12.34s-10.6,5.64-10,13.51a9.13,9.13,0,0,1-.29,1.6c-4.18,0-8.43.31-12.6-.12C1.15,67.93-.31,65.73.05,62.93c.69-5.28,1.3-10.57,2.3-15.79,1.2-6.22,4.71-9.31,11.06-10.41A33.12,33.12,0,0,1,17,36.24c8.19-.5,14-3.64,19-11,7.1-10.59,18.77-16,30.79-19.62C75.15,3.07,83.92,1.84,92.51.08A21,21,0,0,1,95.86.06Z"/><path class="cls-4" d="M34.89,64.1c0,3.68-4,7.43-7.68,7.26A7.9,7.9,0,0,1,20,63.63a7.78,7.78,0,0,1,7.4-7C31.22,56.65,34.93,60.38,34.89,64.1Z"/><path class="cls-4" d="M69.54,64.61c-2.52,0-5.05.1-7.56-.06-.71,0-1.38-.82-2.07-1.27.67-.62,1.32-1.75,2-1.77q7.95-.24,15.92,0c.7,0,1.38,1.06,2.08,1.63-.8.5-1.58,1.38-2.41,1.44C74.86,64.73,72.19,64.61,69.54,64.61Z"/><polygon class="cls-4" points="204.4 2.91 243.51 4.47 204.4 6.03 204.4 2.91"/><polygon class="cls-4" points="206.75 10.17 220.4 11.73 206.75 13.29 206.75 10.17"/><polygon class="cls-4" points="205.38 17.19 226.66 18.86 205.37 20.31 205.38 17.19"/><path class="cls-8" d="M61.57,31.31c-.31,1.07-2.06,2-3.34,2.46A71.13,71.13,0,0,1,49,36.44c-1.79.39-4,.71-5.46,0-1-.49-1.32-3-1.18-4.56C43,24.72,47,21.39,54.29,21.37S63.71,24.11,61.57,31.31Z"/></svg>