<svg xmlns="http://www.w3.org/2000/svg" xmlns:xlink="http://www.w3.org/1999/xlink" viewBox="0 0 153.87 45.09"><defs><style>.cls-1{fill:none;}.cls-2{clip-path:url(#clip-path);}.cls-3{fill:url(#linear-gradient);}.cls-4,.cls-5{fill:#fff;}.cls-4{fill-rule:evenodd;}.cls-6{fill:#1e2e3d;}</style><clipPath id="clip-path"><path class="cls-1" d="M103.45,10.57l0,0c-.33.25-.71.54-1.16.91h0c-.45.36-.82.67-1.13.94l0,0a1.65,1.65,0,0,0-.5,2.08l0,0c.18.27.41.58.68.94h0q.41.54.72.9l0,0a1.53,1.53,0,0,0,2.07,0l0,0c.33-.23.71-.53,1.15-.89h0c.45-.36.82-.67,1.13-.94l0,0a1.65,1.65,0,0,0,.5-2.08l0,0c-.17-.27-.39-.58-.67-.94h0c-.28-.37-.52-.66-.73-.91l0,0a1.23,1.23,0,0,0-.94-.39,1.9,1.9,0,0,0-1.13.4"/></clipPath><linearGradient id="linear-gradient" x1="-44.66" y1="2689.67" x2="-43.66" y2="2689.67" gradientTransform="matrix(6.77, 0, 0, -6.77, 402.7, 18219.77)" gradientUnits="userSpaceOnUse"><stop offset="0" stop-color="#ffd424"/><stop offset="0" stop-color="#ffd424"/><stop offset="1" stop-color="#fab91a"/></linearGradient></defs><title>logo</title><g id="Layer_2" data-name="Layer 2"><g id="Layer_1-2" data-name="Layer 1"><g class="cls-2"><rect class="cls-3" x="100.21" y="10.17" width="7.16" height="6.81"/></g><path class="cls-4" d="M132.65,23.34a2.61,2.61,0,0,1-2.41,1.95,1.48,1.48,0,0,1-1.55-1.42l-.24-17.14a1,1,0,0,0-1-1,1.76,1.76,0,0,0-1.49,1l-8.39,17.14a2.64,2.64,0,0,1-2.23,1.42,1.48,1.48,0,0,1-1.48-1.95,2.1,2.1,0,0,1,.19-.53l8.46-17.26a7,7,0,0,1,5.9-3.84,3.87,3.87,0,0,1,4.09,3.84l.24,17.26a1.63,1.63,0,0,1-.06.53M91.63,21a4.36,4.36,0,0,0,4.61,4.34h5c6.51,0,13-5.28,14.6-11.8s-2.48-11.79-9-11.79h-5.14a2.63,2.63,0,0,0-2.41,2,1.5,1.5,0,0,0,1.48,2H106c4.36,0,7,3.52,6,7.87a10.6,10.6,0,0,1-9.75,7.89h-5A1.45,1.45,0,0,1,95.63,20l-.21-14.4a3.86,3.86,0,0,0-4.08-3.84,7,7,0,0,0-5.91,3.84L77,22.81a2.62,2.62,0,0,0-.2.53,1.5,1.5,0,0,0,1.49,2,2.64,2.64,0,0,0,2.22-1.43L88.9,6.73a1.73,1.73,0,0,1,1.48-1,1,1,0,0,1,1,1ZM82.34,3.71a1.48,1.48,0,0,0-1.47-1.94h-15a2.61,2.61,0,0,0-2.39,1.94A1.48,1.48,0,0,0,65,5.65h5.55l-4.2,17.66a1.48,1.48,0,0,0,1.48,1.93,2.62,2.62,0,0,0,2.39-1.93L74.4,5.65H80a2.41,2.41,0,0,0,1.5-.57,2.53,2.53,0,0,0,.89-1.37"/><path class="cls-5" d="M60.18,33.17H66.1l-.18.75h-2.5l-2,8.26h-.9l2-8.26H60Zm17,0c2.08,0,2.79,1.14,2.44,2.62a3.36,3.36,0,0,1-2.83,2.56l1.41,3.83H77.14l-1.33-3.76H74.14l-.89,3.76h-.91l2.15-9Zm-.19.76h-1.8l-.89,3.75h1.82a2.42,2.42,0,0,0,2.57-1.89c.27-1.14-.17-1.86-1.7-1.86m12-.76h.9l-1.35,5.67c-.44,1.87.35,2.63,1.76,2.63s2.54-.76,3-2.63l1.34-5.67h.91l-1.35,5.66a4.09,4.09,0,0,1-4.09,3.44c-1.83,0-3-1.06-2.46-3.44Zm19.54-.1c2,0,3.27,1,3.5,2.73H111a2.35,2.35,0,0,0-2.63-1.95,4.67,4.67,0,0,0-4.39,3.82c-.55,2.34.61,3.8,2.58,3.8a4.18,4.18,0,0,0,3.55-1.92h1.06a5.55,5.55,0,0,1-4.8,2.71c-2.5,0-4-1.89-3.31-4.59a5.85,5.85,0,0,1,5.5-4.6m12.63,5-1,4.16h-.91l2.15-9h.9l-1,4.22,4.91-4.22h1.14l-5.28,4.5,3.18,4.51h-1.19Z"/><path class="cls-5" d="M60.58,0C59.92,3,59.39,5.63,58.73,8.27c-1.74,7-3.56,14-5.29,21-.45,1.83-1.32,2.78-3.33,2.55-1.25-.14-2.55.11-3.8,0-8.56-1.1-13.05,4.68-17.43,10.42-1.2,1.56-2.48,1.14-3.79,1-.39,0-1-1.18-1-1.82-.15-4.93-3-8-7.21-7.8s-6.7,3.57-6.36,8.54a6,6,0,0,1-.18,1c-2.64,0-5.32.19-8-.07A2.72,2.72,0,0,1,0,39.76c.44-3.33.82-6.68,1.45-10,.76-3.93,3-5.89,7-6.58a21.9,21.9,0,0,1,2.26-.31c5.18-.32,8.88-2.3,12-7C27.22,9.23,34.6,5.81,42.19,3.52,47.49,1.94,53,1.16,58.46.05a13,13,0,0,1,2.12,0"/><path class="cls-5" d="M22,40.5a5.07,5.07,0,0,1-4.85,4.59,5,5,0,0,1-4.53-4.88,4.94,4.94,0,0,1,4.68-4.43A5,5,0,0,1,22,40.5"/><path class="cls-5" d="M43.94,40.83c-1.59,0-3.19.06-4.77,0-.46,0-.88-.52-1.31-.8.42-.39.83-1.11,1.26-1.12,3.35-.11,6.71-.11,10.06,0,.45,0,.88.67,1.31,1-.5.32-1,.87-1.52.91-1.67.12-3.35,0-5,0"/><polygon class="cls-5" points="129.16 1.84 153.87 2.82 129.16 3.81 129.16 1.84"/><polygon class="cls-5" points="130.64 6.43 139.26 7.41 130.64 8.4 130.64 6.43"/><polygon class="cls-5" points="129.78 10.87 143.22 11.92 129.77 12.84 129.78 10.87"/><path class="cls-6" d="M38.9,19.78c-.19.68-1.3,1.27-2.1,1.56A44.64,44.64,0,0,1,31,23a5.47,5.47,0,0,1-3.45,0c-.61-.31-.84-1.9-.75-2.88.42-4.49,2.92-6.6,7.54-6.6s6,1.73,4.6,6.27"/></g></g></svg>