<svg xmlns="http://www.w3.org/2000/svg" xmlns:xlink="http://www.w3.org/1999/xlink" viewBox="0 0 56 56"><defs><style>.cls-1{fill:url(#New_Gradient_Swatch);}.cls-2{fill:#fff;}.cls-2,.cls-3{fill-rule:evenodd;}.cls-3,.cls-4,.cls-5{fill:#1e2e3d;}.cls-4{font-size:6.27px;font-family:SVN-PoppinsLight, SVN-Poppins;font-weight:300;letter-spacing:0.54em;}</style><linearGradient id="New_Gradient_Swatch" y1="28" x2="56" y2="28" gradientUnits="userSpaceOnUse"><stop offset="0" stop-color="#ffd424"/><stop offset="1" stop-color="#fab91a"/></linearGradient></defs><g id="Layer_2" data-name="Layer 2"><g id="Layer_1-2" data-name="Layer 1"><rect class="cls-1" width="56" height="56" rx="12"/><path class="cls-2" d="M28.76,22.75c.22-.18.39-.32.55-.43h0a.72.72,0,0,1,1,0h0a5,5,0,0,1,.34.43h0a5.11,5.11,0,0,1,.32.44v0a.77.77,0,0,1-.23,1h0c-.14.13-.32.28-.53.45h0c-.22.17-.39.31-.55.42v0a.73.73,0,0,1-1,0h0l-.34-.43h0c-.13-.17-.24-.32-.32-.45h0a.78.78,0,0,1,.23-1h0l.53-.44Z"/><path class="cls-3" d="M43.14,28.35a1.23,1.23,0,0,1-1.14.92.71.71,0,0,1-.74-.67l-.11-8.11a.46.46,0,0,0-.48-.46.84.84,0,0,0-.71.46L36,28.6a1.24,1.24,0,0,1-1.05.67.7.7,0,0,1-.71-.92.77.77,0,0,1,.1-.25l4-8.16a3.28,3.28,0,0,1,2.79-1.82,1.83,1.83,0,0,1,1.93,1.82l.12,8.16a1.13,1.13,0,0,1,0,.25"/><path class="cls-3" d="M23.63,20.49a.47.47,0,0,0-.49-.46.84.84,0,0,0-.7.46l-4,8.11a1.24,1.24,0,0,1-1.05.68.71.71,0,0,1-.7-.93,1.06,1.06,0,0,1,.09-.25l4-8.17a3.31,3.31,0,0,1,2.8-1.81,1.83,1.83,0,0,1,1.93,1.81l.09,6.82a.69.69,0,0,0,.73.68h2.39a5,5,0,0,0,4.61-3.72A2.85,2.85,0,0,0,30.51,20H28.08a.71.71,0,0,1-.7-.93,1.23,1.23,0,0,1,1.14-.92H31c3.08,0,5,2.49,4.25,5.58a7.51,7.51,0,0,1-6.9,5.58H25.91a2.06,2.06,0,0,1-2.18-2.06Z"/><path class="cls-3" d="M19.34,19.06a1.27,1.27,0,0,1-.42.65,1.19,1.19,0,0,1-.72.27H15.58l-2,8.35a1.22,1.22,0,0,1-1.13.92.71.71,0,0,1-.7-.92l2-8.35H11.12a.7.7,0,0,1-.69-.92,1.24,1.24,0,0,1,1.13-.91h7.08a.7.7,0,0,1,.7.91"/><text class="cls-4" transform="matrix(0.97, 0, -0.23, 0.97, 7.66, 37.27)">TRUCK</text><polygon class="cls-5" points="41.49 18.18 53.18 18.64 41.49 19.11 41.49 18.18"/><polygon class="cls-5" points="42.19 20.35 46.27 20.81 42.19 21.28 42.19 20.35"/><polygon class="cls-5" points="41.78 22.45 48.14 22.95 41.77 23.38 41.78 22.45"/></g></g></svg>